<svg width="32" height="32" viewBox="0 0 32 32" xmlns="http://www.w3.org/2000/svg">
    <g fill="#1b0540" fill-rule="nonzero">
        <path d="M27.942 19.396c.039.232.058.455.058.668 0 .658-.187 1.249-.562 1.772-.601.833-1.58 1.25-2.935 1.25h-2.818v-2.383h2.768c.433 0 .738-.058.916-.174.182-.112.274-.289.274-.53 0-.073-.01-.153-.03-.24a108.546 108.546 0 0 1-.201-1.068l-.029-.138-.022-.138a22.72 22.72 0 0 0-.165-.85l2.256-.69c.144.683.308 1.523.49 2.52zm-1.485-3.625-1.413-1.438 1.399-1.453 1.442 1.453-1.428 1.438zm-3.02.007-1.414-1.438 1.392-1.452 1.442 1.452-1.42 1.438z"/>
        <path d="M18.967 20.71v-.748c0-.445-.094-.799-.282-1.06a.897.897 0 0 0-.764-.385.922.922 0 0 0-.778.385c-.178.237-.267.544-.267.922 0 .044.002.09.007.138.015.257.13.45.346.581.183.111.414.167.692.167h1.046zm-1.046-4.576c1.062 0 1.908.39 2.538 1.17.582.712.872 1.598.872 2.658v.748h.714v2.375h-.735c-.12 1.506-.851 2.583-2.192 3.232-.524.252-1.137.434-1.838.545a10.95 10.95 0 0 1-1.795.138v-2.382c1.201 0 2.105-.17 2.71-.509.49-.27.736-.612.736-1.024h-1.01c-.855 0-1.583-.232-2.184-.697-.721-.562-1.082-1.37-1.082-2.426 0-1.002.24-1.852.721-2.55.582-.852 1.43-1.278 2.545-1.278z"/>
        <path d="M13.415 21a1.667 1.667 0 0 0 .087-.726 1.839 1.839 0 0 0-.324-.966c-.198-.276-.426-.414-.685-.414-.356 0-.65.213-.88.64a2.863 2.863 0 0 0-.223.537 5.17 5.17 0 0 0-.08.247l-.029.109-.028.094c.278.242.634.443 1.067.603.355.126.639.189.85.189.087 0 .169-.104.245-.312zm-.922-4.488c1.115 0 1.965.47 2.552 1.41.226.362.396.774.512 1.234.096.392.144.765.144 1.118 0 1.177-.293 2.058-.88 2.644a2.303 2.303 0 0 1-1.507.69 2.143 2.143 0 0 1-.201.007c-.601 0-1.24-.15-1.918-.45a7.021 7.021 0 0 1-.743-.37l-.158-.088-.144-.08a3.804 3.804 0 0 0-.238-.137c-.394.397-1.05.595-1.968.595h-.39v-2.382h.296c.485 0 .805-.102.959-.305.067-.092.202-.455.403-1.09l.044-.123c.014-.053.033-.107.057-.16.048-.135.104-.266.166-.392.164-.354.356-.666.577-.937.64-.79 1.451-1.184 2.437-1.184z"/>
        <path d="M7.778 23.085h-.65a3.483 3.483 0 0 1-1.434-.283 2.692 2.692 0 0 1-1.413-1.424A3.555 3.555 0 0 1 4 19.933v-4.714c.34.417.705.771 1.097 1.06.392.29.799.49 1.22.598l.04 3.056c0 .295.056.499.166.61.106.107.308.16.606.16h.649v2.382zM14.374 11.624c0 1.278-.312 2.283-.937 3.014-.394.455-.906.802-1.536 1.039-.6.223-1.31.334-2.126.334H8.686c-.827 0-1.572-.153-2.235-.458-.754-.348-1.343-.854-1.766-1.518C4.228 13.3 4 12.445 4 11.471c0-.12.002-.242.007-.363.058-1.128.402-2.38 1.031-3.755l2.149.995c-.505 1.095-.78 2.056-.822 2.884a4.236 4.236 0 0 0-.008.247c0 .518.109.941.325 1.27.211.34.538.582.98.727.169.058.351.1.548.124.154.019.313.029.476.029h1.089c.898 0 1.509-.167 1.83-.502.275-.285.412-.786.412-1.503V7.099h2.357v4.525zM8.037 6.525 9.537 5l1.528 1.54-1.521 1.525-1.507-1.54z"/>
    </g>
</svg>
